<?xml version="1.0" encoding="utf-8"?>
<!-- Generator: Adobe Illustrator 27.5.0, SVG Export Plug-In . SVG Version: 6.00 Build 0)  -->
<svg version="1.1" id="_x3C_Layer_x3E_" xmlns="http://www.w3.org/2000/svg" xmlns:xlink="http://www.w3.org/1999/xlink" x="0px"
	 y="0px" viewBox="0 0 3000 2000" style="enable-background:new 0 0 3000 2000;" xml:space="preserve">
<rect style="fill:#FFFFFF;" width="3000" height="2000"/>
<g>
	<defs>
		<path id="SVGID_1_" d="M2479.898,1771.601c-71.386,22.862-158.338,29.055-227.399,24.29c0,0-1269.708,122.314-1728.672-3.088
			c-339.681-92.81-298.674-423.214-194.721-634.694c105.138-213.89-170.849-627.333,272.798-867.076
			c255.179-137.897,484.054,82.774,925.196-80.135c398.277-147.079,912.033-15.524,1037.666,292.944
			c86.425,212.201-22.526,440.946,86.425,551.819C2827.894,1235.481,2746.64,1686.177,2479.898,1771.601z"/>
	</defs>
	<clipPath id="SVGID_00000105400609866258109160000013344681894251826613_">
		<use xlink:href="#SVGID_1_"  style="overflow:visible;"/>
	</clipPath>
	<path style="clip-path:url(#SVGID_00000105400609866258109160000013344681894251826613_);fill:#0759850D;" d="M2479.898,1771.601
		c-71.386,22.862-158.338,29.055-227.399,24.29c0,0-1269.708,122.314-1728.672-3.088
		c-339.681-92.81-298.674-423.214-194.721-634.694c105.138-213.89-170.849-627.333,272.798-867.076
		c255.179-137.897,484.054,82.774,925.196-80.135c398.277-147.079,912.033-15.524,1037.666,292.944
		c86.425,212.201-22.526,440.946,86.425,551.819C2827.894,1235.481,2746.64,1686.177,2479.898,1771.601z"/>
	<g style="clip-path:url(#SVGID_00000105400609866258109160000013344681894251826613_);">
		<g>
			<path style="fill:#E96F5F;" d="M1201.353,1521.337c0,0,34.776-67.91,30.849-93.754c-3.928-25.843-25.085-99.298-19.561-126.686
				c1.72-8.526,19.702-73.833,35.974-82.735c11.008-6.023,35.268,18.694,26.754,52.079c-14.799,58.033,2.84,92.222,12.413,116.872
				c16.328,42.046,22.619,67.104,23.136,46.688c0,0-7.63-62.894-4.637-90.304c0.808-7.404,17.157-64.226,32.855-69.448
				c8.492-2.825,35.133,11.323,24.642,63.55c-6.894,34.324,12.345,56.842,26.457,80.569c12.212,20.534,71.784,72.597,71.784,72.597
				l-80.578,61.357L1201.353,1521.337z"/>
			<path style="fill:#F78978;" d="M1149.523,1410.491c0,0-37.912-107.462-40.767-151.598c-1.145-17.704,0.579-76.095,15.054-86.229
				c23.893-16.729,51.287,25.187,48.75,78.762c-2.518,53.162,49.344,94.839,74.318,129.927
				c62.086,87.234,99.511,139.738,99.511,139.738L1149.523,1410.491z"/>
			<g>
				<path style="fill:#075985;" d="M1269.897,1026.554c-8.028-8.012,8.028-9.454,8.028-26.268v-14.895
					c0-48.103,10.881-88.001,32.644-119.694c21.763-31.693,57.082-62.821,105.96-93.37c27.485-16.024,47.539-29.017,60.145-38.947
					c12.606-9.93,21.569-20.231,26.921-30.935c5.336-10.688,8.012-24.439,8.012-41.236c0-28.259-10.51-50.022-31.499-65.304
					c-21.005-15.266-51.36-22.907-91.064-22.907c-62.628,0-118.759,16.427-168.394,49.264c-9.172,5.352-15.282,8.012-18.329,8.012
					c-6.883,0-31.474-10.918-36.052-19.332l-25.818-70.023c-3.063-5.336-4.578-9.914-4.578-13.751
					c0-6.867,4.191-12.977,12.606-18.329c71.01-48.103,159.222-72.155,264.617-72.155c85.535,0,154.643,19.667,207.341,59.001
					c52.698,39.334,79.055,94.127,79.055,164.38c0,45.814-10.704,83.617-32.08,113.407c-21.392,29.791-55.761,58.05-103.106,84.777
					c-37.432,21.376-63.015,41.236-76.749,59.565c-13.751,18.329-20.618,41.623-20.618,69.882v12.59
					c0,16.814-3.821,29.226-11.462,37.238c-7.641,8.028-21.005,12.026-40.092,12.026h-85.922
					C1311.133,1049.551,1277.909,1034.582,1269.897,1026.554z M1269.897,1208.288c-11.832-9.543,0-12.106,0-28.146v-24.052
					c0-16.797,5.916-29.984,17.749-39.527c11.832-9.543,28.839-14.315,50.989-14.315h66.448c22.891,0,40.269,4.772,52.101,14.315
					c11.832,9.543,17.765,22.73,17.765,39.527v24.052c0,16.797-5.932,29.791-17.765,38.947
					c-11.832,9.173-29.21,13.751-52.101,13.751h-66.448C1316.485,1232.841,1281.729,1217.832,1269.897,1208.288z"/>
			</g>
			<g>
				<path style="fill:#FFA089;" d="M2079.748,1567.748c-27.139-7.478-52.57-14.633-74.73-21.071
					c-12.35-3.623-23.697-7.006-33.732-10.101c-16.204-5.017-29.011-9.28-37.25-12.523c-21.07-8.298-54.219-16.425-81.355-32.524
					l-0.016-0.017c-18.377-10.885-33.978-25.428-41.234-46.167c-17.984-51.382-114.078-142.356-200.973-201.752
					c-47.379-32.409-95.787-85.405-113.306-106.832c-13.777-16.857-61.717-89.352-80.048-95.157
					c-10.794-3.402-36.834,26.37-40.074,43.405c-6.965,36.498,18.452,82.603,69.281,152.665
					c48.432,66.746,54.382,105.393,52.292,141.55c-1.379,23.488-6.208,47.026-34.727,68.13
					c-3.368,2.473-13.433,11.099-28.005,19.675c-30.482,17.969-80.667,35.745-129.802-3.634c-0.578-0.472-1.158-0.913-1.752-1.369
					l-0.015-0.016c0,0,0,0-0.015-0.016c-21.267-16.409-48.282-26.681-72.698-37.977c-25.561-11.829-48.297-24.798-58.572-47.144
					c-12.502-27.171-34.58-51.405-57.405-78.727l-0.015-0.017c-16.543-19.747-33.48-41.128-47.452-66.427
					c-34.099-61.664-73.451-57.759-87.06-32.034c-7.374,13.966,26.929,111.49,33.679,125.21
					c8.989,18.327,82.336,140.582,98.13,160.134c38.84,48.152,206.123,192.121,237.99,216.747
					c53.984,41.742,202.189,51.357,324.804,71.861c8.206,1.374,16.39,2.859,24.553,4.453l0.032,0.001
					c44.825,8.773,88.932,20.816,131.931,36.094c13.633,4.811,27.126,9.961,40.521,15.439c6.031,2.469,12.058,5.001,18.035,7.609
					C1976.811,1743.075,2037.127,1653.267,2079.748,1567.748z"/>
				<polygon style="fill:#89B4FD;" points="1861.387,1853.863 1699.49,1777.718 1852.51,1491.46 2010.346,1535.3 				"/>
				<path style="fill:#100259;" d="M2619.331,1684.452l-639.815-164.297l-2.913,5.78l-5.323,10.647l-139.082,277.585l-10.53,21.021
					l-9.596,19.133l476.963,269.256C2397.648,2022.906,2500.014,1794.872,2619.331,1684.452z"/>
				<path style="fill:#100259;" d="M1894.081,1543.569c5.031,4.742,12.953,4.51,17.695-0.521c4.744-5.03,4.51-12.953-0.521-17.695
					c-5.029-4.743-12.952-4.509-17.695,0.521C1888.818,1530.905,1889.052,1538.828,1894.081,1543.569z"/>
			</g>
			<g>
				<path style="fill:#2A6FD3;" d="M1264.115,1021.939c-8.028-8.012-12.026-20.425-12.026-37.238v-14.895
					c0-48.103,10.881-88.001,32.644-119.694c21.763-31.693,57.083-62.821,105.96-93.37c27.485-16.024,47.539-29.017,60.145-38.947
					s21.569-20.231,26.921-30.935c5.336-10.688,8.012-24.439,8.012-41.236c0-28.259-10.51-50.022-31.499-65.304
					c-21.005-15.266-51.36-22.907-91.064-22.907c-62.628,0-118.759,16.427-168.394,49.264c-9.173,5.352-15.282,8.012-18.329,8.012
					c-6.883,0-12.606-4.191-17.184-12.606l-44.686-76.749c-3.063-5.336-4.578-9.914-4.578-13.751
					c0-6.867,4.191-12.977,12.606-18.329c71.01-48.103,159.222-72.155,264.617-72.155c85.535,0,154.643,19.667,207.341,59.001
					c52.698,39.334,79.055,94.127,79.055,164.38c0,45.814-10.704,83.617-32.08,113.407c-21.392,29.791-55.761,58.05-103.106,84.777
					c-37.432,21.376-63.015,41.236-76.749,59.565c-13.751,18.329-20.618,41.623-20.618,69.882v12.59
					c0,16.814-3.821,29.226-11.462,37.238c-7.641,8.028-21.005,12.026-40.092,12.026h-85.922
					C1285.297,1033.965,1272.127,1029.967,1264.115,1021.939z M1261.81,1202.94c-11.832-9.543-17.749-22.343-17.749-38.383v-24.052
					c0-16.797,5.916-29.984,17.749-39.527c11.832-9.543,28.839-14.315,50.989-14.315h66.448c22.891,0,40.269,4.772,52.101,14.315
					c11.832,9.543,17.765,22.73,17.765,39.527v24.052c0,16.798-5.932,29.791-17.765,38.947
					c-11.832,9.172-29.21,13.751-52.101,13.751h-66.448C1290.649,1217.255,1273.642,1212.483,1261.81,1202.94z"/>
			</g>
			<path style="fill:#FFA089;" d="M1801.184,1424.353c-31.625-52.649-114.707-128.789-190.717-180.774
				c-47.377-32.393-95.801-85.384-113.324-106.815c-13.754-16.856-61.704-89.365-80.039-95.171
				c-10.801-3.385-36.837,26.389-40.073,43.417c-6.961,36.499,18.443,82.615,69.268,152.656
				c48.445,66.747,54.395,105.394,52.3,141.554c-0.051,0.834-0.107,1.642-0.158,2.476L1801.184,1424.353z"/>
		</g>
	</g>
	<path style="clip-path:url(#SVGID_00000105400609866258109160000013344681894251826613_);fill:#FFFFFF;" d="M1908.676,490.423
		l-163.275,55.448c-8.154,2.769-17.009-1.596-19.778-9.75l0,0c-2.769-8.154,1.596-17.009,9.75-19.778l163.275-55.448
		c8.154-2.769,17.009,1.596,19.778,9.75l0,0C1921.196,478.799,1916.83,487.654,1908.676,490.423z"/>
	<path style="clip-path:url(#SVGID_00000105400609866258109160000013344681894251826613_);fill:#FFFFFF;" d="M1739.553,363.059
		l-53.227,96.588c-3.394,6.158-11.137,8.399-17.295,5.006l-5.012-2.762c-6.158-3.393-8.399-11.137-5.006-17.295l53.227-96.588
		c3.394-6.158,11.137-8.399,17.295-5.006l5.012,2.762C1740.705,349.158,1742.946,356.901,1739.553,363.059z"/>
	<path style="clip-path:url(#SVGID_00000105400609866258109160000013344681894251826613_);fill:#FFFFFF;" d="M1582.346,325.177
		l-5.208,73.965c-0.406,5.768-5.411,10.115-11.179,9.709l-9.146-0.644c-5.768-0.406-10.115-5.411-9.709-11.179l5.208-73.965
		c0.406-5.768,5.411-10.115,11.179-9.709l9.146,0.644C1578.405,314.404,1582.752,319.409,1582.346,325.177z"/>
</g>
</svg>
